<?xml version="1.0" standalone="no"?><!DOCTYPE svg PUBLIC "-//W3C//DTD SVG 1.1//EN" "http://www.w3.org/Graphics/SVG/1.1/DTD/svg11.dtd"><svg t="1621398592289" class="icon" viewBox="0 0 1298 1024" version="1.1" xmlns="http://www.w3.org/2000/svg" p-id="5532" xmlns:xlink="http://www.w3.org/1999/xlink" width="253.515625" height="200"><defs><style type="text/css"></style></defs><path d="M707.960217 258.005c24.43 25.305 43.93 55.49 58.505 90.56 14.57 35.07 21.86 71.85 21.86 110.315 0 38.475-7.29 75.245-21.86 110.315-14.575 35.07-34.075 65.255-58.505 90.56-24.435 25.305-53.58 45.5-87.44 60.595-33.86 15.095-69.37 22.64-106.51 22.64-37.15 0-72.65-7.545-106.51-22.64s-63.005-35.29-87.44-60.595c-24.43-25.305-43.93-55.49-58.505-90.56-14.57-35.07-21.86-71.84-21.86-110.315 0-38.465 7.29-75.245 21.86-110.315 14.575-35.07 34.075-65.255 58.505-90.56 24.435-25.3 53.58-45.5 87.44-60.595C441.360217 182.32 476.860217 174.77 514.010217 174.77c37.14 0 72.65 7.55 106.51 22.64 33.86 15.095 63.005 35.295 87.44 60.595zM679.240217 163.675C628.805217 133.195 573.730217 117.95 514.010217 117.95c-59.725 0-114.8 15.245-165.23 45.725C298.345217 194.16 258.410217 235.52 228.980217 287.75 199.550217 339.985 184.835217 397.03 184.835217 458.88c0 61.86 14.715 118.905 44.145 171.135 29.43 52.235 69.365 93.595 119.8 124.075 50.43 30.475 105.505 45.72 165.23 45.72 59.72 0 114.795-15.245 165.23-45.72 50.43-30.48 90.365-71.84 119.8-124.075 29.425-52.23 44.145-109.275 44.145-171.135 0-61.85-14.72-118.895-44.145-171.13-29.435-52.23-69.37-93.59-119.8-124.075z" p-id="5533"></path><path d="M735.895217 678.995l199.12 199.12c10.755 10.755 10.755 28.14 0 38.89-10.75 10.755-28.135 10.755-38.89 0l-199.12-199.12c-10.755-10.755-10.755-28.14 0-38.89 10.75-10.755 28.135-10.755 38.89 0z" p-id="5534"></path></svg>